<svg version="1.1" id="Layer_1" xmlns="http://www.w3.org/2000/svg" xmlns:xlink="http://www.w3.org/1999/xlink" x="0px" y="0px" viewBox="0 0 20 20" enable-background="new 0 0 20 20" xml:space="preserve">
	<path d="M16.3,12.5l-0.9-3.2l0,0c0,0,0,0-0.2,0l-2.3,2.5c0,0,0,0,0,0.2l0,0l0.9,0.3c-0.2,1.6-1.4,3-3,3.4V7.2
		c0.7-0.3,1.4-1.1,1.4-2c0-1.1-0.9-2.2-2.2-2.2C9,3,8.1,3.9,8.1,5.2c0,0.9,0.5,1.6,1.4,2v8.3c-1.6-0.3-2.8-1.8-3-3.4l0.9-0.3l0,0
		c0,0,0,0,0-0.2L4.8,9.1c0,0,0,0-0.2,0c-0.2,0,0,0,0,0l-0.9,3.2c0,0,0,0,0,0.2c0,0,0,0,0.2,0l0.9-0.3c0.3,2.5,2.5,4.5,5.2,4.7l0,0
		h0.2h0.2l0,0c2.7-0.2,4.7-2.2,5.2-4.7L16.3,12.5C16.3,12.7,16.3,12.7,16.3,12.5L16.3,12.5z M10.1,4.5c0.3,0,0.8,0.3,0.8,0.8
		c0,0.3-0.3,0.8-0.8,0.8c-0.3,0-0.8-0.3-0.8-1C9.2,4.9,9.7,4.5,10.1,4.5z"/>
</svg>
