<?xml version="1.0" encoding="utf-8"?>
<!-- Generator: Adobe Illustrator 18.0.0, SVG Export Plug-In . SVG Version: 6.00 Build 0)  -->
<!DOCTYPE svg PUBLIC "-//W3C//DTD SVG 1.1//EN" "http://www.w3.org/Graphics/SVG/1.1/DTD/svg11.dtd">
<svg version="1.1" id="Layer_1" xmlns="http://www.w3.org/2000/svg" xmlns:xlink="http://www.w3.org/1999/xlink" x="0px" y="0px"
	 viewBox="0 0 20 20" enable-background="new 0 0 20 20" xml:space="preserve">
<g>
	<path d="M-16.6,22.2L-17,35.1c0,0.4-0.4,0.7-0.8,0.7c-0.4,0-0.7-0.3-0.7-0.7L-19,22.2c0-0.7,0.5-1.2,1.2-1.2S-16.6,21.5-16.6,22.2
		C-16.6,22.2-16.6,22.2-16.6,22.2z"/>
</g>
<g>
	<path d="M-16,22.3c-0.1,2.2-0.2,4.5-0.3,6.8c3.2-3.4,6.4,3.5,9.6,0.7c-0.6-0.5-1.3-1.3-1.9-2.3c0.7-1.1,1.4-2.5,2.2-4.4
		C-9.6,26.3-12.8,19.5-16,22.3z"/>
</g>
<g>
	<path d="M6.7,3.8L6.3,16.7c0,0.4-0.4,0.7-0.8,0.7c-0.4,0-0.7-0.3-0.7-0.7L4.3,3.8c0-0.7,0.5-1.2,1.2-1.2S6.7,3.1,6.7,3.8
		C6.7,3.8,6.7,3.8,6.7,3.8z"/>
</g>
<polygon points="16.3,10.7 6.4,10.7 6.4,3.7 16.3,3.7 14.1,7.2 "/>
</svg>
