<?xml version="1.0" encoding="utf-8"?>
<!-- Generator: Adobe Illustrator 15.0.0, SVG Export Plug-In . SVG Version: 6.00 Build 0)  -->
<!DOCTYPE svg PUBLIC "-//W3C//DTD SVG 1.1//EN" "http://www.w3.org/Graphics/SVG/1.1/DTD/svg11.dtd">
<svg version="1.1" id="Layer_1" xmlns="http://www.w3.org/2000/svg" xmlns:xlink="http://www.w3.org/1999/xlink" x="0px" y="0px"
	 width="18px" height="18px" viewBox="0 0 18 18" enable-background="new 0 0 18 18" xml:space="preserve">
<path d="M5.199,3.96c1.352-0.934,3.204-0.595,4.136,0.757l1.28,1.853c-0.607-0.207-1.263-0.262-1.902-0.138L8.113,5.561
	C7.647,4.886,6.718,4.716,6.045,5.183C5.37,5.648,5.201,6.576,5.667,7.25l1.69,2.445c0.466,0.675,1.393,0.844,2.067,0.379
	c0.211-0.146,0.367-0.34,0.475-0.555c0.047,0.041,0.1,0.078,0.136,0.133l0.785,1.137c-0.162,0.186-0.339,0.362-0.553,0.508
	c-1.349,0.934-3.202,0.596-4.133-0.756L4.443,8.096C3.511,6.744,3.85,4.893,5.199,3.96z M7.387,12.357l1.28,1.854
	c0.934,1.35,2.784,1.688,4.136,0.756c1.351-0.934,1.689-2.785,0.756-4.136l-1.689-2.446c-0.932-1.35-2.785-1.689-4.134-0.756
	C7.521,7.775,7.344,7.951,7.182,8.138l0.786,1.135c0.037,0.055,0.089,0.092,0.137,0.132C8.212,9.19,8.368,8.998,8.579,8.852
	c0.674-0.466,1.602-0.297,2.067,0.378l1.689,2.444c0.467,0.675,0.297,1.603-0.378,2.067c-0.675,0.467-1.603,0.297-2.068-0.377
	l-0.601-0.87C8.65,12.617,7.996,12.562,7.387,12.357z"/>
</svg>
