<?xml version="1.0" encoding="utf-8"?>
<!-- Generator: Adobe Illustrator 15.0.0, SVG Export Plug-In . SVG Version: 6.00 Build 0)  -->
<!DOCTYPE svg PUBLIC "-//W3C//DTD SVG 1.1//EN" "http://www.w3.org/Graphics/SVG/1.1/DTD/svg11.dtd">
<svg version="1.1" id="Layer_1" xmlns="http://www.w3.org/2000/svg" xmlns:xlink="http://www.w3.org/1999/xlink" x="0px" y="0px"
	 width="18px" height="18px" viewBox="0 0 18 18" enable-background="new 0 0 18 18" xml:space="preserve">
<path fill="none" d="M5.199,3.96c1.352-0.934,3.204-0.595,4.136,0.757l1.28,1.853c-0.607-0.207-1.263-0.262-1.902-0.138L8.113,5.561
	C7.647,4.886,6.718,4.716,6.045,5.183C5.37,5.648,5.201,6.576,5.667,7.25l1.69,2.445c0.466,0.675,1.393,0.844,2.067,0.379
	c0.211-0.146,0.367-0.34,0.475-0.555c0.047,0.041,0.1,0.078,0.136,0.133l0.785,1.137c-0.162,0.186-0.339,0.362-0.553,0.508
	c-1.349,0.934-3.202,0.596-4.133-0.756L4.443,8.096C3.511,6.744,3.85,4.893,5.199,3.96z M7.387,12.357l1.28,1.854
	c0.934,1.35,2.784,1.688,4.136,0.756c1.351-0.934,1.689-2.785,0.756-4.136l-1.689-2.446c-0.932-1.35-2.785-1.689-4.134-0.756
	C7.521,7.775,7.344,7.951,7.182,8.138l0.786,1.135c0.037,0.055,0.089,0.092,0.137,0.132C8.212,9.19,8.368,8.998,8.579,8.852
	c0.674-0.466,1.602-0.297,2.067,0.378l1.689,2.444c0.467,0.675,0.297,1.603-0.378,2.067c-0.675,0.467-1.603,0.297-2.068-0.377
	l-0.601-0.87C8.65,12.617,7.996,12.562,7.387,12.357z"/>
<path d="M41,7c0,2.209-1.791,4-4,4l0,0c-2.209,0-4-1.791-4-4V4c0-2.209,1.791-4,4-4l0,0c2.209,0,4,1.791,4,4V7z"/>
<path fill="#FFFFFF" d="M39,7c0,1.104-0.896,2-2,2l0,0c-1.104,0-2-0.896-2-2V4c0-1.104,0.896-2,2-2l0,0c1.104,0,2,0.896,2,2V7z"/>
<path d="M55,0c-2.209,0-4,1.791-4,4v3c0,2.209,1.791,4,4,4s4-1.791,4-4V4C59,1.791,57.209,0,55,0z M57,7c0,1.104-0.896,2-2,2
	s-2-0.896-2-2V4c0-1.104,0.896-2,2-2s2,0.896,2,2V7z"/>
<path d="M57,5c-2.209,0-4,1.791-4,4v3c0,2.209,1.791,4,4,4s4-1.791,4-4V9C61,6.791,59.209,5,57,5z M59,12c0,1.104-0.896,2-2,2
	s-2-0.896-2-2V9c0-1.104,0.896-2,2-2s2,0.896,2,2V12z"/>
<path fill="#FFFFFF" d="M55-1c-2.762,0-5,2.239-5,5v3c0,2.762,2.238,5,5,5 M55,11c-2.209,0-4-1.791-4-4V4c0-2.209,1.791-4,4-4"/>
<path fill="#FFFFFF" d="M57,17c2.762,0,5-2.238,5-5V9c0-2.762-2.238-5-5-5 M57,5c2.209,0,4,1.791,4,4v3c0,2.209-1.791,4-4,4"/>
<g>
	<path d="M78,7c0,0.09-0.015,0.176-0.026,0.263C78.583,7.605,79,8.251,79,9v0.62c0.615-0.703,1-1.613,1-2.62V6.38
		c-0.521-0.597-1.21-1.034-2-1.238V7z"/>
	<path d="M76,0c-2.209,0-4,1.791-4,4v3c0,2.209,1.791,4,4,4c0.732,0,1.409-0.211,2-0.555V9c0-0.33-0.17-0.609-0.417-0.791
		C77.218,8.687,76.647,9,76,9c-1.104,0-2-0.896-2-2V4c0-1.104,0.896-2,2-2s2,0.896,2,2v0.101c0.744,0.151,1.416,0.48,2,0.922V4
		C80,1.791,78.209,0,76,0z"/>
</g>
<g>
	<path d="M75,9c0-0.09,0.015-0.176,0.026-0.263C74.417,8.395,74,7.749,74,7V6.38C73.385,7.083,73,7.993,73,9v0.62
		c0.521,0.597,1.21,1.034,2,1.238V9z"/>
	<path d="M77,5c-0.732,0-1.409,0.211-2,0.555V7c0,0.33,0.17,0.609,0.417,0.791C75.782,7.313,76.353,7,77,7c1.104,0,2,0.896,2,2v3
		c0,1.104-0.896,2-2,2s-2-0.896-2-2v-0.101c-0.744-0.151-1.416-0.48-2-0.922V12c0,2.209,1.791,4,4,4s4-1.791,4-4V9
		C81,6.791,79.209,5,77,5z"/>
</g>
<path fill="#FFFFFF" d="M55.707,7.707C55.526,7.889,55.276,8,55,8c-0.553,0-1-0.447-1-1V4c0-0.552,0.447-1,1-1V2
	c-1.104,0-2,0.896-2,2v3c0,1.104,0.896,2,2,2c0.553,0,1.053-0.224,1.414-0.586L55.707,7.707z"/>
<path fill="#FFFFFF" d="M57,7c-0.553,0-1.053,0.224-1.414,0.586l0.707,0.707C56.474,8.111,56.724,8,57,8c0.553,0,1,0.447,1,1v3
	c0,0.553-0.447,1-1,1v1c1.104,0,2-0.896,2-2V9C59,7.896,58.104,7,57,7z"/>
<g>
	<path d="M94,0c-2.209,0-4,1.791-4,4v3c0,2.209,1.791,4,4,4c1.201,0,2.267-0.541,3-1.38V9c0-0.553-0.447-1-1-1
		c-0.11,0-0.212,0.03-0.312,0.062C95.334,8.624,94.713,9,94,9c-1.104,0-2-0.896-2-2V4c0-1.104,0.896-2,2-2s2,0.896,2,2
		c0.712,0,1.387,0.154,2,0.422V4C98,1.791,96.209,0,94,0z"/>
	<path d="M96,7c0.803,0,1.491,0.477,1.809,1.159C97.922,7.79,98,7.406,98,7V5.555C97.409,5.211,96.732,5,96,5V7z"/>
</g>
<g>
	<path d="M92,10.445C92.591,10.789,93.268,11,94,11V9c-0.803,0-1.491-0.477-1.809-1.159C92.078,8.21,92,8.594,92,9V10.445z"/>
	<path d="M96,5c-1.201,0-2.267,0.541-3,1.38V7c0,0.553,0.447,1,1,1c0.11,0,0.212-0.03,0.312-0.062C94.666,7.376,95.287,7,96,7
		c1.104,0,2,0.896,2,2v3c0,1.104-0.896,2-2,2s-2-0.896-2-2c-0.712,0-1.387-0.153-2-0.422V12c0,2.209,1.791,4,4,4s4-1.791,4-4V9
		C100,6.791,98.209,5,96,5z"/>
</g>
<g>
	<path d="M5.244,3.17C3.532,3.993,2.81,6.049,3.633,7.761l1.118,2.327c0.822,1.713,2.879,2.435,4.591,1.611
		c0.933-0.447,1.558-1.265,1.813-2.188L10.924,9.03c-0.206-0.429-0.72-0.608-1.148-0.402C9.691,8.668,9.622,8.729,9.558,8.793
		c-0.066,0.566-0.408,1.089-0.96,1.355c-0.856,0.41-1.885,0.051-2.297-0.806L5.184,7.016C4.772,6.16,5.133,5.132,5.989,4.721
		c0.856-0.412,1.885-0.051,2.296,0.805c0.552-0.265,1.133-0.397,1.709-0.418L9.836,4.781C9.013,3.068,6.957,2.346,5.244,3.17z"/>
	<path d="M9.402,7.852c0.622-0.299,1.335-0.186,1.835,0.225c-0.05-0.328-0.132-0.655-0.283-0.97l-0.538-1.121
		C9.83,5.94,9.227,6.028,8.658,6.301L9.402,7.852z"/>
</g>
<g>
	<path d="M7.586,12.015c0.586,0.046,1.188-0.043,1.756-0.315l-0.744-1.551c-0.622,0.3-1.334,0.186-1.835-0.225
		c0.05,0.328,0.132,0.654,0.284,0.969L7.586,12.015z"/>
	<path d="M8.658,6.301C7.728,6.749,7.102,7.565,6.847,8.49l0.23,0.48c0.206,0.429,0.72,0.608,1.148,0.402
		c0.085-0.04,0.152-0.101,0.218-0.164c0.065-0.567,0.407-1.09,0.959-1.356c0.857-0.412,1.886-0.051,2.297,0.805l1.117,2.327
		c0.412,0.855,0.051,1.885-0.806,2.295c-0.855,0.411-1.884,0.051-2.295-0.806c-0.553,0.266-1.133,0.398-1.708,0.42l0.156,0.325
		c0.823,1.713,2.88,2.436,4.593,1.611c1.712-0.823,2.434-2.879,1.61-4.592l-1.118-2.326C12.427,6.2,10.37,5.478,8.658,6.301z"/>
</g>
</svg>
