<?xml version="1.0" encoding="utf-8"?>
<!-- Generator: Adobe Illustrator 15.0.0, SVG Export Plug-In . SVG Version: 6.00 Build 0)  -->
<!DOCTYPE svg PUBLIC "-//W3C//DTD SVG 1.1//EN" "http://www.w3.org/Graphics/SVG/1.1/DTD/svg11.dtd">
<svg version="1.1" id="Layer_1" xmlns="http://www.w3.org/2000/svg" xmlns:xlink="http://www.w3.org/1999/xlink" x="0px" y="0px"
	 width="18px" height="18px" viewBox="0 0 18 18" enable-background="new 0 0 18 18" xml:space="preserve">
<path d="M4.249,3.584c1.69-1.167,4.005-0.744,5.17,0.946l1.601,2.316C10.259,6.588,9.44,6.519,8.642,6.674L7.891,5.585
	C7.308,4.742,6.147,4.529,5.306,5.112C4.462,5.694,4.25,6.854,4.833,7.697l2.113,3.057c0.583,0.843,1.741,1.055,2.584,0.473
	c0.264-0.182,0.459-0.424,0.594-0.693c0.06,0.052,0.125,0.098,0.171,0.166l0.981,1.422c-0.202,0.23-0.424,0.452-0.69,0.634
	c-1.688,1.168-4.003,0.744-5.167-0.945L3.303,8.753C2.138,7.064,2.562,4.75,4.249,3.584z M6.983,14.08l1.6,2.317
	c1.167,1.687,3.48,2.109,5.169,0.945c1.688-1.168,2.112-3.482,0.945-5.17l-2.111-3.058C11.421,7.427,9.105,7.004,7.418,8.17
	C7.151,8.353,6.929,8.572,6.727,8.807l0.982,1.42c0.046,0.067,0.111,0.113,0.17,0.164c0.135-0.269,0.33-0.51,0.594-0.691
	c0.843-0.583,2.002-0.371,2.584,0.473l2.112,3.056c0.583,0.844,0.371,2.003-0.473,2.585c-0.843,0.583-2.003,0.371-2.585-0.473
	l-0.751-1.087C8.562,14.406,7.745,14.337,6.983,14.08z"/>
</svg>
