<?xml version="1.0" encoding="utf-8"?>
<!-- Generator: Adobe Illustrator 18.0.0, SVG Export Plug-In . SVG Version: 6.00 Build 0)  -->
<!DOCTYPE svg PUBLIC "-//W3C//DTD SVG 1.1//EN" "http://www.w3.org/Graphics/SVG/1.1/DTD/svg11.dtd">
<svg version="1.1"
	 id="svg4863" xmlns:inkscape="http://www.inkscape.org/namespaces/inkscape" xmlns:sodipodi="http://sodipodi.sourceforge.net/DTD/sodipodi-0.dtd" xmlns:rdf="http://www.w3.org/1999/02/22-rdf-syntax-ns#" xmlns:svg="http://www.w3.org/2000/svg" xmlns:cc="http://creativecommons.org/ns#" xmlns:dc="http://purl.org/dc/elements/1.1/" sodipodi:docname="globe.svg" inkscape:version="0.48.5 r10040"
	 xmlns="http://www.w3.org/2000/svg" xmlns:xlink="http://www.w3.org/1999/xlink" x="0px" y="0px" viewBox="0 0 20 20"
	 enable-background="new 0 0 20 20" xml:space="preserve">
<sodipodi:namedview  id="base" inkscape:zoom="64" showgrid="false" borderopacity="1.0" inkscape:cy="8.0022335" bordercolor="#666666" inkscape:cx="13.52645" pagecolor="#ffffff" inkscape:snap-bbox="true" inkscape:snap-nodes="true" inkscape:window-x="187" inkscape:window-width="1608" inkscape:window-y="0" inkscape:pageopacity="0.0" inkscape:document-units="px" inkscape:current-layer="layer1" inkscape:pageshadow="2" inkscape:window-height="970" inkscape:window-maximized="0">
	<inkscape:grid  type="xygrid" id="grid4886" empspacing="5" visible="true" enabled="true" snapvisiblegridlinesonly="true">
		</inkscape:grid>
</sodipodi:namedview>
<g id="layer1" transform="translate(0,-1032.3622)" inkscape:label="Layer 1" inkscape:groupmode="layer">
	<path id="path3643" sodipodi:nodetypes="ssssscsccsccscccccssccsscccscccc" inkscape:connector-curvature="0" d="M10,1036.4
		c-3.3,0-6,2.7-6,6s2.7,6,6,6s6-2.7,6-6S13.3,1036.4,10,1036.4z M10.9,1038.1c0.6,0.1,1.2,0.3,1.7,0.7c0.5,0.3,0.9,1,0.9,1
		s0,0.9-0.9,0.9h-0.9c-0.9,0-0.9,0.9-0.9,0.9c0,0.9,0.9,0.9,0.9,0.9v0.9c0,0.9,0.9,0.9,0.9,0.9v1.7v0c-0.7,0.5-1.6,0.9-2.6,0.9v-1.7
		c0,0,0-0.9-0.9-0.9H8.3c-0.9,0-0.9-0.9-0.9-0.9v-0.9c0,0,0.9,0,0.9-0.9v-0.9c0-0.9-0.9-0.9-0.9-0.9H6.6c0.5-0.7,1.3-1.2,2.2-1.5
		c0.2,0.1,0.3,0.3,0.3,0.7c0,0.9,0.9,0.9,0.9,0.9c0.9,0,0.9-0.9,0.9-0.9V1038.1L10.9,1038.1z"/>
</g>
</svg>
