<?xml version="1.0" encoding="utf-8"?>
<!-- Generator: Adobe Illustrator 18.0.0, SVG Export Plug-In . SVG Version: 6.00 Build 0)  -->
<!DOCTYPE svg PUBLIC "-//W3C//DTD SVG 1.1//EN" "http://www.w3.org/Graphics/SVG/1.1/DTD/svg11.dtd">
<svg version="1.1" id="Layer_1" xmlns="http://www.w3.org/2000/svg" xmlns:xlink="http://www.w3.org/1999/xlink" x="0px" y="0px"
	 viewBox="0 0 2000 2000" enable-background="new 0 0 2000 2000" xml:space="preserve">
<g>
	<path fill="#FFFFFF" d="M2320-8120c470-30,1010-590,1160-1390"/>
	<g>
		<path d="M2310-8190c0,0,20,0,60-10c20,0,30-10,50-20s50-20,70-30c50-30,110-60,160-110c60-50,110-100,160-160
			c100-120,180-250,230-360c20-50,40-100,50-130s20-50,20-50v-10c40-100,150-150,250-110s150,150,110,250c0,10-10,20-20,30
			c0,0-10,20-30,50s-50,80-90,140c-80,110-200,250-350,370c-70,60-150,110-230,150s-150,70-220,90c-30,10-60,20-90,20s-60,10-80,10
			c-40,0-60,0-60,0c-40,0-70-30-70-70C2250-8150,2270-8180,2310-8190z"/>
		<g>
			<polygon points="3620,-8720 3470,-9510 2870,-8990 			"/>
		</g>
	</g>
</g>
<polyline fill="none" stroke="#000000" stroke-linecap="round" stroke-miterlimit="10" points="2050,-9300 2050,-7850 3400,-7850 
	"/>
<circle cx="-7500" cy="-5000" r="2500"/>
<circle fill="none" stroke="#000000" stroke-linecap="round" stroke-miterlimit="10" cx="-13500" cy="-5000" r="1500"/>
<circle fill="none" stroke="#000000" stroke-linecap="round" stroke-miterlimit="10" cx="-11000" cy="-5000" r="2000"/>
<g>
	<path d="M0-4200c0,0,140,10,390,10c120,0,270,0,440,0c170-10,370-10,580-30c210-10,440-30,680-50s500-50,760-80s540-60,810-120
		c280-60,560-150,840-240s560-170,840-220s550-50,810-40c530,20,1020,100,1440,200c210,50,400,110,580,170c170,60,320,120,440,180
		c120,50,220,110,290,140c70,40,100,60,100,60c140,90,170,280,80,420c-20,30-50,60-80,80c0,0-40,20-100,60c-70,40-160,90-290,140
		c-120,60-270,120-440,180c-170,80-370,140-580,190c-420,100-910,180-1440,200c-260,10-540,10-810-40c-280-40-560-130-840-220
		s-560-180-840-240s-550-90-810-120s-520-60-760-80s-470-40-680-50c-210,0-410,0-580-10c-170,0-320-10-440,0c-250,0-390,10-390,10
		c-140,10-260-90-270-230s90-260,230-270C-20-4200-10-4200,0-4200z"/>
</g>
<path stroke="#000000" stroke-width="0.5" stroke-miterlimit="10" d="M-2686.4-3700l-230-190l-10-10c0-10,0-10,0-20v-30
	c0,0,0-10-10-10s-10,0-10,0l-30,30c-10,10-10,20-20,20c-10,10-20,20-30,20l-180,180c-30,30-70,50-120,70c-50,10-90,10-140,0l-250-80
	c-70-20-140,0-190,40l0,0c-10-10-10-10-10-10c-10,0-20-10-20-10c-20,0-30-10-50-10s-30,0-50,10c-10,0-20,0-20,10h-10l0,0l0,0l0,0
	l0,0l0,0l0,0c0,0,0,0-10,0c0,0-10,0-10,10c-30,10-30,20-40,30s-20,20-30,30c-10,20-20,30-30,50c0,10-10,20-10,20s0,0,0,10v10v10
	c-10,20-20,50-20,70l-10,20l0,0l0,0v10c0,10-10,20-10,30c-10,10-10,20-20,30s-10,20-20,30c-20,20-20,20-40,30l-20,10
	c-50,30-30,110-10,100c80-30,150-90,180-150c10-10,10-30,20-40v-10v-10v-10v-20c20-20,30-50,40-80v-10l0,0l0,0v-10c0-10,10-20,10-30
	c10-20,20-20,30-30l10-10c0,0,0,0,10,0l0,0l0,0l0,0l0,0l0,0l0,0c0,0,0,0,10,0c0,0,10,0,10-10c10,0,20-10,30-10s20,0,30-10
	c0,0,0,0,10,0c-40,60-50,130-20,200l20,40c10,10,10,30,0,40s-20,20-40,20h-70c-10,0-20,0-30,10s-10,20-10,30l10,260v10l-10,10
	l-50,10l-40,100h30l120-70c10,0,10-10,10-10c0-10,10-10,10-20v-190c0-10,10-20,20-30s20-10,40-10l70,10h10c10,0,10,0,10,0l50-10
	c10,0,10,0,20,10c0,10,0,10,0,20l-50,70c-10,10-10,20-10,30s10,20,20,30l250,190l10,10c0,10,0,10,0,20l-10,20l110,40l-10-100
	l-220-220c-10-10-20-20-20-40c0-10,0-30,10-40l100-100c0,0,10-10,20-10s20,0,30,0l250,70c10,0,20,10,20,20s0,20,0,30l-20,60
	c0,10,0,10-10,20c0,10,0,10,0,20v70c0,10,0,20,0,30s-10,20-10,30l-60,120v10l10,10l30,10v10v10l-10,20l110,50v-30l-60-80
	c0,0-10-10-10-20s0-10,0-20l140-340c0-10,10-20,10-20c10-10,10-10,20-20l20-10c10-10,20-10,30-10s20,0,40,10l120,60c0,0,10,0,10,10
	v10l-160,110h-10c-10,0-10,0-10-10l-30-20l-70,80l30,10h90c10,0,10,0,20,0s10-10,20-10l240-160c10-10,10-10,10-30c0-10-10-20-10-20
	l-150-100c-10-10-10-10-20-20c0-10,0-20,0-30l70-220c0-10,0-10,10-10c0,0,10-10,20-10h70c10,0,20,0,30,10c10,0,20,10,30,20v-10
	c30,20,70,10,90-10C-2656.4-3640-2656.4-3670-2686.4-3700z"/>
<g>
	<path stroke="#000000" stroke-width="80" stroke-miterlimit="10" d="M-2020.2,63.1c0,0,73.1-31.5,78.7-35.7
		c66,8.4,42.3,70.8,100.4,53.6c0.7-8.7-6.2-10.9-7.3-18c92.7-14.1,169.8,104.3,279.9,117.8c52.5,6.5,83.4-39.7,121.8-1.4
		c3.4,3.4,5.3,7.7,13.5,8.6c8.3,0.9,60.5-36.9,114.4-39.2c63.8-2.7,125.3,17.7,194.1,35.5c35.4,9.2,72.9,17.7,111.7,21.6
		c15.7,1.6,59.5,10.7,85.3,0.2c22.8-9.3,128.1-65.6,128.1-65.6s41.8-42.5,52.9-61.2C-758.1,69.6-656.3-21.5-640.2-31
		c53.7-31.6,107.8-35.6,119.9-41.2c12.1-5.7,34.6-49.1,68.9-51.7c0.3,6.9-15.9,40.3-11.5,45.4c5.4,6.3,20.4-7.6,30.6-15.6
		s23.8-16.1,23.8-16.1s-0.7,34.1-16.3,45.2c-15.5,11.1-9,17.5-14.1,24.1c79.3,40.1,95.1,131.4,176.5,169.8
		c-3.8,25.2,0.2,37.8-1.6,58.2c-18.3,22.8-30.5,33.6-71.4,29.8c-14.2-21.4-34.3-36.1-58-42.1c-34.2-8.6-75.7-4-115.5-15.4
		c-10.3,74.5-70.9,137.9-86.7,211.1c-11.2,52.1,17,106.9-29.1,146c59.3,32.9,98.7,82.9,175.1,101.3
		c32.5,61.3,77.4,112.1,118.2,166.3c10.6,14.1,18.7,33.3,28.5,48.1c25.9,20.6,51.4,68.6,47.8,80.3c-2.5,2.6-61.6,0.2-88.6-13.6
		c-11.1-12.1-11.6-41-9.8-64c-34.3-18.5-50-63.3-70.8-92.5c-19.1-26.8-39.2-50.8-69.9-68c-18.6-10.5-43.8-17.3-71.5-22.2
		c-74.8-13.3-124-22.5-172-31.2c-15.6,82,58.3,164.9,49.9,248.3c-2.1,20.9-26.1,49.1-41.6,83.9c-39.2,88.1-56.5,169.4-144.6,171.6
		c1-33.6,18.4-88.2,18.4-88.2c26.4-22.4,40.3,8.5,51.3-19.7c-8.1-60.2,50-79.4,54.4-135.2c2.9-36.8-13.4-68.4-34.1-104.6
		c-30.4-53.3-62.6-115.3-75.9-162.6c-179.3-8.8-297.4-72.3-416.4-132.5c-14.1,76.8-76.6,116.9-128.5,150.5
		c-28.1,18.1-51.5,25.8-59.5,57.5c-5.7,26.2,15.3,125.9,29,186.5c4.7,20.8-8.5,58.2-8.5,58.2s2.4,18.3-1.5,39.1
		c-4.4,23.2-15.9,49.9-32.9,67.7c-16.9-23.3-32-48.1-46.4-73.5c0.9-30.6,31.5-26.2,38.8-49.2c-13.6-21-12.6-42.7-13.7-65.5
		c-1.2-24.8-4.1-50.7-9.9-76c-10.2-44-47.1-86-41.7-134.2c28-36.7,74.6-51.4,87-106.4c-83.7-3.2-155.3,7.7-218.3,28.8
		c-79.5,26.6-190,112.6-205.4,117.5s-50.2-0.1-50.2-0.1c-7.6,5.6-53,17.8-111.7,3.7c4.6-26.5,48.6-62.3,53.7-67.9
		c0,0,15.5-2.4,26.7-0.1c13.2,2.7,27.5,22.9,43.4,20.6c17.6-24.2,39.9-31.2,66.7-43.9c26.5-12.6,57.4-30.9,80.3-49
		c32.4-25.7,54.6-60.4,85.7-89.1c78.2,17.9,121.8,4.8,142.5-35.2c30.2-58.4-8.2-117.1,59.7-201.6c-137.9-75.9-282.4-89.1-305.1-86.8
		s-82.2,1.1-85.6,0.5c-7.5-1.2-70-53.4-84-44.7c1-15.1-14.1-47.9-20.6-42.6s-11.4,17.7-25.2,22.8c-4.2,1.5-14,22.4-30.7,26.8
		L-2020.2,63.1z M-421.9,40.2c0.8-16-22.6-27.5-31.5-19C-454.2,37.1-434.3,35.5-421.9,40.2z"/>
</g>
<path display="none" d="M1024.6,1281.6c-242.8,376.6-417.1,253-475.9,143.5c-184.9-344.8,210.4-387.4,210.4-387.4
	C364.6,1150.2,358,919.4,345.4,810.5C313.5,534.7,442,524.3,510.4,538c302.6,60.6,514.2,463.9,514.2,463.9h-7.9
	c0,0,211.6-403.3,514.2-463.9c68.4-13.7,196.8-3.1,165.1,272.6c-12.6,108.9-19.1,339.6-413.7,227.2c0,0,395.4,42.6,210.4,387.4
	c-58.7,109.5-233.1,233.1-475.9-143.5"/>
<path d="M1016.6,1001.8c0,0,211.6-403.3,514.2-463.9c68.4-13.7,196.8-3.1,165.1,272.6C1683.3,919.4,1622,1080,1448,1112
	c0,0,164,76,44.6,313.1c-58.7,109.5-233.1,233.1-475.9-143.5"/>
<path d="M1016.7,1281.6c-242.8,376.6-417.2,253-475.9,143.5C421.5,1188,585.5,1112,585.5,1112c-174-32-235.3-192.6-247.9-301.5
	C305.8,534.8,434.2,524.3,502.6,538c302.6,60.6,514.2,463.9,514.2,463.9"/>
</svg>
